REM DIRINDEX 1\2\3,1\2\4,1\2\5,1\2\6
REM DIRNAME folder01,folder02,folder03,folder04,folder05,folder06
TITLE ""
FILE "042 042.mp3" MP3
  TRACK 01 AUDIO
    TITLE "0:"
    INDEX 01 00:00:00
  TRACK 02 AUDIO
    TITLE "3:cjc157_1593"
    INDEX 01 00:00:09
  TRACK 03 AUDIO
    TITLE "0:"
    INDEX 01 00:01:13
  TRACK 04 AUDIO
    TITLE "4:cjc157_1594"
    INDEX 01 00:01:60
  TRACK 05 AUDIO
    TITLE "0:"
    INDEX 01 00:02:61
  TRACK 06 AUDIO
    TITLE "5:cjc157_1595"
    INDEX 01 00:03:35
  TRACK 07 AUDIO
    TITLE "0:"
    INDEX 01 00:05:34
  TRACK 08 AUDIO
    TITLE "3:cjc157_1596"
    INDEX 01 00:06:10
  TRACK 09 AUDIO
    TITLE "0:"
    INDEX 01 00:07:27
  TRACK 10 AUDIO
    TITLE "4:cjc157_1597"
    INDEX 01 00:07:72
  TRACK 11 AUDIO
    TITLE "0:"
    INDEX 01 00:09:04
  TRACK 12 AUDIO
    TITLE "5:cjc157_1598"
    INDEX 01 00:09:51
  TRACK 13 AUDIO
    TITLE "0:"
    INDEX 01 00:11:23
  TRACK 14 AUDIO
    TITLE "5:cjc157_1599"
    INDEX 01 00:11:72
  TRACK 15 AUDIO
    TITLE "0:"
    INDEX 01 00:14:45
  TRACK 16 AUDIO
    TITLE "3:cjc157_1600"
    INDEX 01 00:15:15
  TRACK 17 AUDIO
    TITLE "0:"
    INDEX 01 00:16:30
  TRACK 18 AUDIO
    TITLE "4:cjc157_1601"
    INDEX 01 00:16:73
  TRACK 19 AUDIO
    TITLE "0:"
    INDEX 01 00:18:01
  TRACK 20 AUDIO
    TITLE "5:cjc157_1602"
    INDEX 01 00:18:50
  TRACK 21 AUDIO
    TITLE "0:"
    INDEX 01 00:20:47
  TRACK 22 AUDIO
    TITLE "5:cjc157_1603"
    INDEX 01 00:21:17
  TRACK 23 AUDIO
    TITLE "0:"
    INDEX 01 00:24:10
  TRACK 24 AUDIO
    TITLE "3:cjc157_1604"
    INDEX 01 00:24:57
  TRACK 25 AUDIO
    TITLE "0:"
    INDEX 01 00:25:74
  TRACK 26 AUDIO
    TITLE "4:cjc157_1605"
    INDEX 01 00:26:40
  TRACK 27 AUDIO
    TITLE "0:"
    INDEX 01 00:27:51
  TRACK 28 AUDIO
    TITLE "5:cjc157_1606"
    INDEX 01 00:28:27
  TRACK 29 AUDIO
    TITLE "0:"
    INDEX 01 00:30:05
  TRACK 30 AUDIO
    TITLE "3:cjc157_1607"
    INDEX 01 00:30:54
  TRACK 31 AUDIO
    TITLE "0:"
    INDEX 01 00:32:15
  TRACK 32 AUDIO
    TITLE "4:cjc157_1608"
    INDEX 01 00:32:62
  TRACK 33 AUDIO
    TITLE "0:"
    INDEX 01 00:34:10
  TRACK 34 AUDIO
    TITLE "5:cjc157_1609"
    INDEX 01 00:34:55
  TRACK 35 AUDIO
    TITLE "0:"
    INDEX 01 00:36:56
  TRACK 36 AUDIO
    TITLE "5:cjc157_1610"
    INDEX 01 00:37:28
  TRACK 37 AUDIO
    TITLE "0:"
    INDEX 01 00:39:29
  TRACK 38 AUDIO
    TITLE "5:cjc157_1611"
    INDEX 01 00:39:74
  TRACK 39 AUDIO
    TITLE "0:"
    INDEX 01 00:41:53
  TRACK 40 AUDIO
    TITLE "3:cjc157_1612"
    INDEX 01 00:42:27
  TRACK 41 AUDIO
    TITLE "0:"
    INDEX 01 00:43:62
  TRACK 42 AUDIO
    TITLE "4:cjc157_1613"
    INDEX 01 00:44:38
  TRACK 43 AUDIO
    TITLE "0:"
    INDEX 01 00:45:61
  TRACK 44 AUDIO
    TITLE "5:cjc157_1614"
    INDEX 01 00:46:45
  TRACK 45 AUDIO
    TITLE "0:"
    INDEX 01 00:48:59
  TRACK 46 AUDIO
    TITLE "5:cjc157_1615"
    INDEX 01 00:49:29
  TRACK 47 AUDIO
    TITLE "0:"
    INDEX 01 00:52:32
  TRACK 48 AUDIO
    TITLE "5:cjc157_1616"
    INDEX 01 00:53:00
  TRACK 49 AUDIO
    TITLE "0:"
    INDEX 01 00:57:31
  TRACK 50 AUDIO
    TITLE "3:cjc157_1617"
    INDEX 01 00:57:70
  TRACK 51 AUDIO
    TITLE "0:"
    INDEX 01 00:59:41
  TRACK 52 AUDIO
    TITLE "4:cjc157_1618"
    INDEX 01 01:00:15
  TRACK 53 AUDIO
    TITLE "0:"
    INDEX 01 01:01:33
  TRACK 54 AUDIO
    TITLE "5:cjc157_1619"
    INDEX 01 01:02:05
  TRACK 55 AUDIO
    TITLE "0:"
    INDEX 01 01:05:07
  TRACK 56 AUDIO
    TITLE "5:cjc157_1620"
    INDEX 01 01:05:52
  TRACK 57 AUDIO
    TITLE "0:"
    INDEX 01 01:09:57
  TRACK 58 AUDIO
    TITLE "3:cjc157_1621"
    INDEX 01 01:10:30
  TRACK 59 AUDIO
    TITLE "0:"
    INDEX 01 01:11:70
  TRACK 60 AUDIO
    TITLE "4:cjc157_1622"
    INDEX 01 01:12:44
  TRACK 61 AUDIO
    TITLE "0:"
    INDEX 01 01:13:63
  TRACK 62 AUDIO
    TITLE "5:cjc157_1623"
    INDEX 01 01:14:35
  TRACK 63 AUDIO
    TITLE "0:"
    INDEX 01 01:17:69
  TRACK 64 AUDIO
    TITLE "5:cjc157_1624"
    INDEX 01 01:18:39
  TRACK 65 AUDIO
    TITLE "0:"
    INDEX 01 01:21:35
  TRACK 66 AUDIO
    TITLE "3:cjc157_1625"
    INDEX 01 01:22:13
  TRACK 67 AUDIO
    TITLE "0:"
    INDEX 01 01:23:58
  TRACK 68 AUDIO
    TITLE "4:cjc157_1626"
    INDEX 01 01:24:24
  TRACK 69 AUDIO
    TITLE "0:"
    INDEX 01 01:25:33
  TRACK 70 AUDIO
    TITLE "5:cjc157_1627"
    INDEX 01 01:26:05
  TRACK 71 AUDIO
    TITLE "0:"
    INDEX 01 01:29:45
  TRACK 72 AUDIO
    TITLE "3:cjc157_1628"
    INDEX 01 01:30:17
  TRACK 73 AUDIO
    TITLE "0:"
    INDEX 01 01:31:59
  TRACK 74 AUDIO
    TITLE "4:cjc157_1629"
    INDEX 01 01:32:31
  TRACK 75 AUDIO
    TITLE "0:"
    INDEX 01 01:33:54
  TRACK 76 AUDIO
    TITLE "5:cjc157_1630"
    INDEX 01 01:34:24
  TRACK 77 AUDIO
    TITLE "0:"
    INDEX 01 01:37:26
